<svg width="299" height="1198" viewBox="0 0 299 1198" fill="none" xmlns="http://www.w3.org/2000/svg">
<path fill-rule="evenodd" clip-rule="evenodd" d="M106.072 79.7536C103.164 86.5635 98.2596 91.9428 93.4895 89.662L93.4928 89.6588C92.9629 89.4016 92.4671 89.0793 92.017 88.6995C86.2836 83.9229 93.8776 69.3734 102.048 65.1526L108.56 70.5768C107.087 73.121 105.935 76.2567 106.072 79.7536ZM110.61 67.7663L103.98 62.2472C111.011 48.1047 122.548 61.3842 110.61 67.7663ZM132.168 33.47C132.619 33.8499 133.114 34.1723 133.644 34.4295L133.64 34.4331C138.411 36.7135 143.316 31.3343 146.223 24.5247C146.09 21.0273 147.239 17.8921 148.711 15.3479L142.2 9.92361C134.029 14.1445 126.435 28.6936 132.168 33.47ZM150.764 12.5325L150.765 12.5334L150.761 12.5338L150.764 12.5325ZM150.764 12.5325C162.701 6.15354 151.165 -7.12006 144.135 7.01501L150.764 12.5325ZM138.459 64.6568C133.902 70.4892 131.557 77.3801 135.856 80.4561L135.863 80.456C136.344 80.7957 136.865 81.074 137.415 81.2846C144.366 84.0015 153.441 70.3278 153.196 61.1344L145.295 58.0494C143.777 60.5657 141.585 63.0867 138.459 64.6568ZM146.77 54.8937C146.596 41.3578 163.795 45.0544 154.8 58.0359L146.77 54.8937ZM98.8171 117.378C92.9672 121.911 88.9871 127.991 92.3883 132.038L92.3884 132.045C92.7709 132.493 93.2078 132.891 93.6889 133.231C99.7481 137.596 111.93 126.586 113.958 117.619L107.077 112.672C104.984 114.723 102.237 116.635 98.8171 117.378ZM116.296 115.018C128.228 104.668 112.479 96.8254 109.294 109.983L109.297 109.983L116.296 115.018ZM193.206 653.754C196.113 660.564 201.018 665.943 205.788 663.662L205.785 663.659C206.315 663.402 206.81 663.079 207.26 662.7C212.994 657.923 205.4 643.373 197.229 639.153L190.718 644.577C192.19 647.121 193.342 650.257 193.206 653.754ZM188.667 641.766L195.297 636.247C188.267 622.105 176.73 635.384 188.667 641.766ZM167.109 607.47C166.659 607.85 166.163 608.172 165.633 608.43L165.637 608.433C160.866 610.714 155.962 605.334 153.055 598.525C153.187 595.027 152.039 591.892 150.566 589.348L157.078 583.924C165.249 588.145 172.842 602.694 167.109 607.47ZM148.514 586.532L148.512 586.533L148.516 586.534L148.514 586.532ZM148.514 586.532L155.143 581.015C148.113 566.88 136.576 580.154 148.514 586.532ZM160.818 638.657C165.376 644.489 167.721 651.38 163.421 654.456L163.415 654.456C162.934 654.796 162.412 655.074 161.862 655.285C154.911 658.002 145.836 644.328 146.081 635.134L153.983 632.049C155.5 634.566 157.693 637.087 160.818 638.657ZM152.508 628.894C152.681 615.358 135.483 619.054 144.477 632.036L152.508 628.894ZM200.46 691.378C206.31 695.911 210.29 701.991 206.889 706.038L206.889 706.045C206.507 706.493 206.07 706.891 205.589 707.231C199.529 711.596 187.348 700.586 185.32 691.619L192.2 686.672C194.293 688.724 197.041 690.635 200.46 691.378ZM182.981 689.018C171.05 678.668 186.798 670.825 189.984 683.983L189.981 683.983L182.981 689.018ZM260.265 774.138C261.212 781.482 264.471 787.991 269.681 787.093L269.679 787.089C270.258 786.985 270.823 786.81 271.36 786.567C278.175 783.528 274.821 767.462 268.105 761.18L260.364 764.63C261.09 767.479 261.346 770.81 260.265 774.138ZM259.155 761.369L267.035 757.859C264.113 742.338 249.401 751.983 259.155 761.369ZM247.728 722.504C247.192 722.748 246.627 722.923 246.047 723.027L246.05 723.031C240.839 723.929 237.581 717.42 236.634 710.076C237.712 706.747 237.458 703.417 236.732 700.569L244.473 697.118C251.189 703.401 254.544 719.466 247.728 722.504ZM235.522 697.301L235.521 697.302L235.524 697.303L235.522 697.301ZM235.522 697.301L243.401 693.793C240.477 678.279 225.768 687.918 235.522 697.301ZM233.199 750.808C236 757.659 236.384 764.928 231.41 766.72L231.404 766.718C230.849 766.914 230.271 767.04 229.685 767.094C222.257 767.819 217.24 752.194 219.974 743.413L228.416 742.591C229.193 745.425 230.617 748.447 233.199 750.808ZM227.854 739.154C231.7 726.174 214.144 725.058 219.272 739.995L227.854 739.154ZM257.022 812.318C261.42 818.27 263.598 825.203 259.225 828.173L259.223 828.18C258.733 828.507 258.204 828.771 257.649 828.968C250.632 831.522 241.9 817.616 242.385 808.436L250.352 805.544C251.808 808.087 253.933 810.673 257.022 812.318ZM240.842 805.296C232.172 792.094 249.459 788.826 248.949 802.354L248.946 802.353L240.842 805.296ZM278.784 932.716C273.734 931.151 273.787 923.871 276.278 916.898C278.753 914.424 280.037 911.34 280.684 908.473L289.147 908.914C292.278 917.561 287.971 933.398 280.518 933.01C279.93 932.983 279.347 932.883 278.784 932.712L278.784 932.716ZM281.087 905.017L289.702 905.469C294.147 890.314 276.66 892.225 281.087 905.017ZM286.822 864.905C287.385 865.076 287.968 865.176 288.556 865.203C296.009 865.591 300.316 849.754 297.185 841.107L288.722 840.666C288.075 843.533 286.789 846.615 284.316 849.092C281.825 856.064 281.772 863.344 286.822 864.91L286.822 864.905ZM289.126 837.205L289.127 837.205L289.128 837.208L289.126 837.205ZM289.127 837.205L297.74 837.658C302.18 822.508 284.697 824.416 289.127 837.205ZM253.939 897.185C259.184 897.848 262.142 891.197 262.759 883.821C261.531 880.546 261.633 877.206 262.229 874.329L254.334 871.227C247.91 877.809 245.285 894.009 252.232 896.735C252.778 896.954 253.35 897.104 253.934 897.181L253.939 897.185ZM263.289 871.011C272.61 861.194 257.475 852.226 255.261 867.863L263.289 871.011ZM250.812 964.568C256.057 963.907 257.265 956.741 256.05 949.442C254.045 946.574 253.326 943.305 253.183 940.377L244.773 939.336C240.172 947.294 241.636 963.649 249.048 964.56C249.631 964.637 250.223 964.642 250.808 964.573L250.812 964.568ZM253.383 936.898C259.98 925.077 243.095 920.138 244.823 935.838L253.38 936.896L253.383 936.898ZM242.962 1050.58C238.749 1056.67 236.811 1063.69 241.283 1066.51L241.284 1066.51C241.784 1066.82 242.321 1067.07 242.883 1067.24C249.98 1069.55 258.244 1055.37 257.461 1046.21L249.401 1043.59C248.033 1046.19 245.994 1048.84 242.962 1050.58ZM250.686 1040.36L258.89 1043.02C267.11 1029.54 249.725 1026.85 250.686 1040.36ZM268.217 1003.84C267.656 1003.66 267.119 1003.41 266.619 1003.1L266.618 1003.1C262.146 1000.28 264.084 993.266 268.297 987.177C271.327 985.425 273.367 982.782 274.735 980.18L282.795 982.799C283.578 991.963 275.315 1006.14 268.217 1003.84ZM276.024 976.943L276.022 976.943L276.024 976.946L276.024 976.943ZM276.024 976.943L284.225 979.612C292.439 966.13 275.059 963.443 276.024 976.943ZM238.476 1015.13C235.97 1022.1 231.389 1027.75 226.494 1025.76L226.491 1025.75C225.947 1025.52 225.434 1025.23 224.962 1024.88C218.959 1020.44 225.693 1005.48 233.603 1000.79L240.424 1005.83C239.103 1008.45 238.139 1011.65 238.476 1015.13ZM242.308 1002.9C253.854 995.832 241.56 983.249 235.369 997.778L242.308 1002.9ZM214.992 1076.77C214.274 1084.14 211.251 1090.75 206.014 1090.03L206.008 1090.03C205.425 1089.94 204.855 1089.79 204.311 1089.56C197.389 1086.76 200.213 1070.59 206.719 1064.09L214.572 1067.28C213.952 1070.14 213.799 1073.48 214.992 1076.77ZM207.674 1060.73C210.073 1045.11 225.102 1054.26 215.666 1063.97L215.665 1063.97L207.674 1060.73ZM174.536 1182.65C170.816 1178.89 174.286 1172.49 179.764 1167.51C183.112 1166.49 185.695 1164.38 187.615 1162.15L194.876 1166.52C193.573 1175.62 182.323 1187.57 175.929 1183.73C175.422 1183.42 174.955 1183.06 174.538 1182.65L174.536 1182.65ZM189.596 1159.29L196.986 1163.74C208.036 1152.46 191.705 1145.92 189.596 1159.29ZM213.521 1126.59C213.938 1127 214.406 1127.36 214.912 1127.67C221.306 1131.51 232.556 1119.56 233.859 1110.46L226.598 1106.09C224.678 1108.32 222.094 1110.43 218.747 1111.45C213.269 1116.43 209.799 1122.83 213.519 1126.59L213.521 1126.59ZM228.582 1103.23L228.583 1103.23L228.583 1103.23L228.582 1103.23ZM235.971 1107.68C247.014 1096.39 230.689 1089.86 228.583 1103.23L235.971 1107.68ZM169.32 1139.61C173.638 1142.66 179.376 1138.18 183.389 1131.96C183.846 1128.5 185.507 1125.6 187.386 1123.34L181.877 1116.89C173.113 1119.67 163.177 1132.74 168.026 1138.41C168.405 1138.86 168.84 1139.26 169.318 1139.6L169.32 1139.61ZM189.882 1120.91C202.725 1116.63 193.586 1101.6 184.277 1114.35L189.882 1120.91ZM134.872 1197.6C139.811 1199.49 144.247 1193.73 146.607 1186.72C146.187 1183.24 147.09 1180.02 148.341 1177.37L141.408 1172.5C133.605 1177.36 127.205 1192.48 133.318 1196.77C133.797 1197.11 134.316 1197.39 134.865 1197.61L134.872 1197.6ZM150.153 1174.4C161.535 1167.07 148.956 1154.77 143.098 1169.43L150.152 1174.39L150.153 1174.4ZM29.5966 213.093C34.8069 213.991 38.0652 207.482 39.0127 200.138C37.9312 196.81 38.1875 193.479 38.9133 190.63L31.1728 187.18C24.4565 193.462 21.1022 209.528 27.9179 212.567C28.4543 212.81 29.019 212.985 29.5988 213.089L29.5966 213.093ZM32.2424 183.859L40.1228 187.368C49.8766 177.982 35.1649 168.338 32.2424 183.859ZM53.2304 149.027C52.6506 148.923 52.0859 148.748 51.5494 148.504C44.7338 145.466 48.088 129.4 54.8045 123.118L62.545 126.569C61.8192 129.417 61.5658 132.747 62.6439 136.076C61.6968 143.42 58.4385 149.929 53.2278 149.031L53.2304 149.027ZM63.7565 123.302L63.7553 123.301C73.5099 113.918 58.8004 104.279 55.8761 119.793L63.7553 123.301L63.7532 123.303L63.7565 123.302ZM67.8672 192.72C62.8934 190.928 63.2777 183.659 66.0785 176.808C68.66 174.447 70.0848 171.425 70.8614 168.591L79.3039 169.413C82.0378 178.194 77.0201 193.819 69.5928 193.094C69.0063 193.04 68.4288 192.914 67.8735 192.718L67.8672 192.72ZM71.4234 165.154C67.5776 152.174 85.1337 151.058 80.0056 165.995L71.4234 165.154ZM40.0526 254.173C35.6796 251.203 37.8577 244.27 42.2557 238.318C45.3444 236.673 47.4692 234.087 48.9258 231.544L56.8921 234.436C57.377 243.616 48.6458 257.522 41.6285 254.968C41.0732 254.771 40.5444 254.507 40.0546 254.18L40.0526 254.173ZM50.3281 228.354C49.8184 214.826 67.1053 218.094 58.4355 231.296L50.3313 228.353L50.3281 228.354ZM22.9998 342.898C25.4906 349.871 25.5439 357.151 20.4937 358.716L20.4939 358.712C19.9303 358.883 19.3476 358.983 18.7592 359.01C11.3068 359.398 6.99952 343.561 10.1302 334.914L18.5936 334.473C19.2406 337.34 20.5248 340.424 22.9998 342.898ZM18.1898 331.017L9.57508 331.469C5.13037 316.314 22.6176 318.225 18.1898 331.017ZM10.721 291.202C11.3094 291.176 11.8922 291.076 12.4559 290.905L12.4555 290.91C17.5059 289.344 17.4526 282.064 14.9616 275.092C12.489 272.615 11.2028 269.533 10.5558 266.666L2.09245 267.107C-1.03847 275.754 3.26884 291.59 10.721 291.202ZM10.1503 263.205L10.1517 263.205L10.1493 263.208L10.1503 263.205ZM10.1503 263.205C14.58 250.416 -2.90252 248.508 1.53724 263.658L10.1503 263.205ZM36.5189 309.821C37.135 317.197 40.0936 323.848 45.3386 323.185L45.3434 323.181C45.9271 323.104 46.499 322.954 47.0457 322.735C53.9926 320.009 51.3671 303.809 44.9437 297.227L37.0489 300.329C37.644 303.206 37.747 306.546 36.5189 309.821ZM35.9884 297.011C26.6679 287.194 41.8022 278.226 44.0168 293.863L35.9884 297.011ZM43.2277 375.442C42.0121 382.741 43.22 389.907 48.465 390.568L48.4699 390.573C49.0548 390.642 49.646 390.637 50.2299 390.56C57.6418 389.649 59.1056 373.294 54.5046 365.336L46.0941 366.377C45.9513 369.305 45.2327 372.574 43.2277 375.442ZM54.4541 361.838C56.1829 346.138 39.2972 351.077 45.8947 362.898L45.8971 362.896L54.4541 361.838ZM57.9941 492.511C62.466 489.69 60.5282 482.673 56.3155 476.584C53.2839 474.836 51.2444 472.19 49.8764 469.588L41.8165 472.207C41.0335 481.37 49.2975 495.55 56.3948 493.244C56.9561 493.066 57.493 492.818 57.993 492.507L57.9941 492.511ZM48.5911 466.355L40.3877 469.024C32.1675 455.538 49.5528 452.853 48.5911 466.355ZM32.6584 429.099C32.1583 429.41 31.6214 429.658 31.06 429.836C23.963 432.142 15.699 417.963 16.4821 408.799L24.5421 406.18C25.9101 408.782 27.9508 411.425 30.9809 413.177C35.1936 419.266 37.1314 426.282 32.6594 429.104L32.6584 429.099ZM23.2551 402.943L23.2537 402.943C24.218 389.443 6.83825 392.13 15.0521 405.612L23.2537 402.943L23.2535 402.946L23.2551 402.943ZM72.7831 451.756C67.8888 453.755 63.3079 448.098 60.8015 441.134C61.1388 437.652 60.174 434.453 58.8535 431.828L65.6749 426.786C73.5844 431.479 80.3181 446.445 74.315 450.878C73.8437 451.231 73.3302 451.524 72.7865 451.75L72.7831 451.756ZM56.9695 428.898C45.4233 421.832 57.717 409.249 63.908 423.778L56.9695 428.898ZM93.2637 516.026C88.0267 516.747 85.0032 510.139 84.2856 502.774C85.4789 499.484 85.3258 496.141 84.7052 493.277L92.5586 490.091C99.0647 496.586 101.889 512.761 94.9663 515.562C94.4224 515.788 93.8525 515.945 93.2697 516.03L93.2637 516.026ZM83.6111 489.968C74.1757 480.26 89.2047 471.115 91.6034 486.726L83.6127 489.965L83.6111 489.968ZM119.514 593.512C124.991 598.495 128.462 604.894 124.741 608.65L124.739 608.646C124.322 609.062 123.855 609.425 123.349 609.725C116.954 613.572 105.705 601.622 104.401 592.518L111.663 588.149C113.582 590.375 116.166 592.493 119.514 593.512ZM109.681 585.289L102.291 589.74C91.2411 578.455 107.573 571.918 109.681 585.289ZM84.3651 553.665C84.8718 553.365 85.339 553.002 85.756 552.586L85.7581 552.591C89.4786 548.834 86.008 542.435 80.5305 537.453C77.1835 536.43 74.5993 534.315 72.6797 532.089L65.4181 536.458C66.7219 545.562 77.971 557.512 84.3651 553.665ZM70.6943 529.226L70.6955 529.225L70.6948 529.229C70.6946 529.228 70.6945 529.227 70.6943 529.226ZM63.3061 533.676C52.2631 522.394 68.5887 515.856 70.6943 529.226L63.3061 533.676ZM115.888 557.964C119.901 564.183 125.64 568.661 129.957 565.61L129.959 565.604C130.438 565.261 130.872 564.859 131.251 564.409C136.1 558.736 126.164 545.674 117.4 542.887L111.892 549.337C113.77 551.597 115.432 554.495 115.888 557.964ZM109.395 546.908C96.5529 542.628 105.692 527.596 115 540.354L109.395 546.908Z" fill="url(#paint0_linear_62_223)"/>
<defs>
<linearGradient id="paint0_linear_62_223" x1="150" y1="1197.52" x2="150" y2="0.51612" gradientUnits="userSpaceOnUse">
<stop offset="0.138582" stop-color="#F0F8FF"/>
<stop offset="0.906935" stop-color="#F0F8FF"/>
<stop offset="0.950808" stop-color="#BCDFFF"/>
<stop offset="1" stop-color="#F0F8FF"/>
</linearGradient>
</defs>
</svg>
