<svg width="19" height="20" viewBox="0 0 19 20" fill="none" xmlns="http://www.w3.org/2000/svg">
<path d="M9.3939 0.516113C8.16028 0.516113 6.93873 0.765126 5.79901 1.24893C4.65929 1.73274 3.62372 2.44187 2.75141 3.33583C0.989712 5.14127 0 7.58997 0 10.1432C0 14.3984 2.69605 18.0086 6.42543 19.289C6.89513 19.366 7.04543 19.0676 7.04543 18.8077V17.1807C4.44332 17.7583 3.88908 15.8906 3.88908 15.8906C3.45696 14.7739 2.84635 14.4754 2.84635 14.4754C1.99151 13.8786 2.91211 13.8978 2.91211 13.8978C3.8515 13.9652 4.34938 14.8894 4.34938 14.8894C5.16665 16.3527 6.54755 15.9195 7.083 15.6885C7.16755 15.0627 7.41179 14.6391 7.67482 14.3984C5.58937 14.1578 3.40059 13.3298 3.40059 9.66188C3.40059 8.59327 3.75756 7.73646 4.36817 7.05293C4.27423 6.81225 3.94544 5.81103 4.4621 4.51137C4.4621 4.51137 5.25119 4.25144 7.04543 5.49334C7.78755 5.28154 8.59542 5.17564 9.3939 5.17564C10.1924 5.17564 11.0003 5.28154 11.7424 5.49334C13.5366 4.25144 14.3257 4.51137 14.3257 4.51137C14.8424 5.81103 14.5136 6.81225 14.4196 7.05293C15.0302 7.73646 15.3872 8.59327 15.3872 9.66188C15.3872 13.3394 13.189 14.1481 11.0942 14.3888C11.4324 14.6872 11.7424 15.2745 11.7424 16.1698V18.8077C11.7424 19.0676 11.8927 19.3757 12.3718 19.289C16.1012 17.999 18.7878 14.3984 18.7878 10.1432C18.7878 8.87899 18.5448 7.62711 18.0727 6.4591C17.6007 5.29108 16.9087 4.22979 16.0364 3.33583C15.1641 2.44187 14.1285 1.73274 12.9888 1.24893C11.8491 0.765126 10.6275 0.516113 9.3939 0.516113Z" fill="white"/>
</svg>
