<svg width="20" height="20" viewBox="0 0 20 20" fill="none" xmlns="http://www.w3.org/2000/svg">
<path d="M10.0756 8.04342C9.60965 8.04342 9.15414 8.18159 8.7667 8.44047C8.37926 8.69935 8.07728 9.06731 7.89896 9.49781C7.72064 9.92832 7.67399 10.402 7.76489 10.859C7.8558 11.3161 8.08019 11.7359 8.40968 12.0654C8.73917 12.3949 9.15897 12.6192 9.61599 12.7101C10.073 12.8011 10.5467 12.7544 10.9772 12.5761C11.4077 12.3978 11.7757 12.0958 12.0346 11.7083C12.2934 11.3209 12.4316 10.8654 12.4316 10.3994C12.4316 10.09 12.3707 9.78366 12.2523 9.49781C12.1339 9.21197 11.9603 8.95225 11.7416 8.73347C11.5228 8.5147 11.2631 8.34115 10.9772 8.22275C10.6914 8.10435 10.385 8.04342 10.0756 8.04342ZM19.5091 5.71591C19.5041 4.98228 19.369 4.25536 19.1101 3.56891C18.9194 3.06661 18.6244 2.61045 18.2445 2.23054C17.8646 1.85063 17.4084 1.5556 16.9061 1.36491C16.2197 1.106 15.4928 0.970912 14.7591 0.965914C13.5336 0.899414 13.1726 0.899414 10.0756 0.899414C6.97862 0.899414 6.61762 0.899414 5.39212 0.965914C4.65849 0.970912 3.93157 1.106 3.24512 1.36491C2.74282 1.5556 2.28666 1.85063 1.90675 2.23054C1.52684 2.61045 1.2318 3.06661 1.04112 3.56891C0.782213 4.25536 0.64712 4.98228 0.642122 5.71591C0.575622 6.94141 0.575623 7.30241 0.575623 10.3994C0.575623 13.4964 0.575622 13.8574 0.642122 15.0829C0.652348 15.8191 0.787258 16.5483 1.04112 17.2394C1.23096 17.7394 1.52574 18.1929 1.90562 18.5694C2.28391 18.9516 2.74104 19.2466 3.24512 19.4339C3.93157 19.6928 4.65849 19.8279 5.39212 19.8329C6.61762 19.8994 6.97862 19.8994 10.0756 19.8994C13.1726 19.8994 13.5336 19.8994 14.7591 19.8329C15.4928 19.8279 16.2197 19.6928 16.9061 19.4339C17.4102 19.2466 17.8673 18.9516 18.2456 18.5694C18.6255 18.1929 18.9203 17.7394 19.1101 17.2394C19.3688 16.5496 19.5038 15.8196 19.5091 15.0829C19.5756 13.8574 19.5756 13.4964 19.5756 10.3994C19.5756 7.30241 19.5756 6.94141 19.5091 5.71591ZM17.0961 13.3159C17.0656 13.9022 16.9405 14.4796 16.7256 15.0259C16.5412 15.4816 16.267 15.8956 15.9194 16.2432C15.5718 16.5908 15.1578 16.865 14.7021 17.0494C14.1507 17.2523 13.57 17.3646 12.9826 17.3819H7.16862C6.58127 17.3646 6.00059 17.2523 5.44912 17.0494C4.97802 16.8743 4.55259 16.5951 4.20462 16.2324C3.86041 15.8916 3.59457 15.4799 3.42562 15.0259C3.2219 14.475 3.1127 13.8937 3.10262 13.3064V7.49241C3.1127 6.90515 3.2219 6.3238 3.42562 5.77291C3.60069 5.30181 3.87998 4.87638 4.24262 4.52841C4.58494 4.18606 4.99622 3.9205 5.44912 3.74941C6.00059 3.5465 6.58127 3.43421 7.16862 3.41691H12.9826C13.57 3.43421 14.1507 3.5465 14.7021 3.74941C15.1732 3.92448 15.5987 4.20377 15.9466 4.56641C16.2908 4.90723 16.5567 5.31894 16.7256 5.77291C16.9285 6.32438 17.0408 6.90506 17.0581 7.49241V10.3994C17.0581 12.3564 17.1246 12.5559 17.0961 13.3064V13.3159ZM15.5761 6.24791C15.463 5.94105 15.2847 5.66237 15.0534 5.43112C14.8222 5.19986 14.5435 5.02152 14.2366 4.90841C13.8153 4.76236 13.3715 4.69162 12.9256 4.69941H7.22562C6.77748 4.70379 6.33364 4.78742 5.91462 4.94641C5.61246 5.05439 5.33673 5.22544 5.10578 5.4482C4.87482 5.67097 4.69393 5.94034 4.57512 6.23841C4.43716 6.66151 4.36976 7.10443 4.37562 7.54941V13.2494C4.38504 13.6971 4.4685 14.14 4.62262 14.5604C4.73573 14.8673 4.91407 15.146 5.14533 15.3772C5.37658 15.6085 5.65526 15.7868 5.96212 15.8999C6.36746 16.049 6.79399 16.1324 7.22562 16.1469H12.9256C13.3738 16.1425 13.8176 16.0589 14.2366 15.8999C14.5435 15.7868 14.8222 15.6085 15.0534 15.3772C15.2847 15.146 15.463 14.8673 15.5761 14.5604C15.7351 14.1414 15.8187 13.6976 15.8231 13.2494V7.54941C15.8234 7.10082 15.7396 6.65615 15.5761 6.23841V6.24791ZM10.0756 14.0284C9.5995 14.0284 9.12806 13.9345 8.6883 13.752C8.24854 13.5695 7.84911 13.302 7.51289 12.9649C7.17666 12.6278 6.91025 12.2277 6.72891 11.7875C6.54757 11.3472 6.45487 10.8755 6.45612 10.3994C6.45613 9.68126 6.6692 8.97926 7.06839 8.38227C7.46757 7.78528 8.0349 7.32015 8.69857 7.04576C9.36224 6.77137 10.0924 6.70006 10.7966 6.84086C11.5008 6.98165 12.1474 7.32823 12.6546 7.8367C13.1617 8.34518 13.5066 8.99269 13.6455 9.69727C13.7845 10.4019 13.7113 11.1318 13.4351 11.7948C13.159 12.4577 12.6924 13.0238 12.0944 13.4214C11.4963 13.8191 10.7938 14.0303 10.0756 14.0284ZM13.8756 7.48291C13.6656 7.46069 13.4713 7.36152 13.33 7.20454C13.1888 7.04755 13.1106 6.84384 13.1106 6.63266C13.1106 6.42149 13.1888 6.21778 13.33 6.06079C13.4713 5.9038 13.6656 5.80464 13.8756 5.78241C14.0856 5.80464 14.28 5.9038 14.4212 6.06079C14.5625 6.21778 14.6406 6.42149 14.6406 6.63266C14.6406 6.84384 14.5625 7.04755 14.4212 7.20454C14.28 7.36152 14.0856 7.46069 13.8756 7.48291Z" fill="white"/>
</svg>
