<svg width="20" height="20" viewBox="0 0 20 20" fill="none" xmlns="http://www.w3.org/2000/svg">
<path fill-rule="evenodd" clip-rule="evenodd" d="M0.787812 2.08575C0.787812 1.66946 0.953183 1.27021 1.24755 0.975851C1.54191 0.681487 1.94115 0.516115 2.35745 0.516115H18.0043C18.2106 0.515778 18.4149 0.556136 18.6056 0.634877C18.7963 0.713618 18.9696 0.829197 19.1155 0.974996C19.2615 1.12079 19.3773 1.29395 19.4562 1.48455C19.5352 1.67515 19.5757 1.87945 19.5756 2.08575V17.7326C19.5758 17.9389 19.5354 18.1433 19.4565 18.334C19.3777 18.5247 19.2621 18.6979 19.1162 18.8439C18.9703 18.9898 18.7971 19.1056 18.6065 19.1845C18.4158 19.2635 18.2115 19.304 18.0051 19.3039H2.35745C2.15125 19.3039 1.94707 19.2633 1.75658 19.1844C1.56608 19.1054 1.39301 18.9897 1.24725 18.8439C1.10148 18.698 0.985879 18.5249 0.907048 18.3344C0.828216 18.1438 0.787699 17.9396 0.787812 17.7334V2.08575ZM8.22437 7.67939H10.7684V8.95696C11.1356 8.22253 12.075 7.56154 13.4867 7.56154C16.193 7.56154 16.8343 9.02443 16.8343 11.7085V16.6805H14.0956V12.32C14.0956 10.7913 13.7283 9.92881 12.7958 9.92881C11.502 9.92881 10.964 10.8588 10.964 12.32V16.6805H8.22437V7.67939ZM3.52742 16.5635H6.26702V7.56154H3.52742V16.5626V16.5635ZM6.659 4.62552C6.66417 4.86009 6.62243 5.09333 6.53623 5.31154C6.45004 5.52976 6.32112 5.72857 6.15705 5.89629C5.99298 6.06401 5.79707 6.19727 5.5808 6.28825C5.36453 6.37923 5.13227 6.42609 4.89764 6.42609C4.66302 6.42609 4.43076 6.37923 4.21449 6.28825C3.99822 6.19727 3.8023 6.06401 3.63824 5.89629C3.47417 5.72857 3.34525 5.52976 3.25906 5.31154C3.17286 5.09333 3.13112 4.86009 3.13629 4.62552C3.14643 4.1651 3.33645 3.72694 3.66566 3.4049C3.99488 3.08285 4.43711 2.90252 4.89764 2.90252C5.35818 2.90252 5.80041 3.08285 6.12962 3.4049C6.45884 3.72694 6.64886 4.1651 6.659 4.62552Z" fill="white"/>
</svg>
