<svg width="20" height="18" viewBox="0 0 20 18" fill="none" xmlns="http://www.w3.org/2000/svg">
<path d="M16.394 6.48546C15.6112 6.48546 14.9458 6.21147 14.3978 5.6635C13.8498 5.11552 13.5758 4.45012 13.5758 3.66729C13.5758 2.88447 13.8498 2.21907 14.3978 1.67109C14.9458 1.12311 15.6112 0.849121 16.394 0.849121C17.1768 0.849121 17.8422 1.12311 18.3902 1.67109C18.9382 2.21907 19.2122 2.88447 19.2122 3.66729C19.2122 4.45012 18.9382 5.11552 18.3902 5.6635C17.8422 6.21147 17.1768 6.48546 16.394 6.48546ZM2.30316 17.7581C1.78649 17.7581 1.34435 17.5743 0.976739 17.2067C0.608498 16.8385 0.424377 16.396 0.424377 15.8794V4.60668C0.424377 4.09002 0.608498 3.64788 0.976739 3.28026C1.34435 2.91202 1.78649 2.7279 2.30316 2.7279H11.791C11.7284 3.04103 11.6971 3.35416 11.6971 3.66729C11.6971 3.98042 11.7284 4.29355 11.791 4.60668C11.9006 5.10769 12.0806 5.57332 12.3312 6.00356C12.5817 6.43442 12.887 6.81425 13.2471 7.14304L9.81828 9.30363L3.52437 5.3582C3.25821 5.18597 2.98829 5.17815 2.71461 5.33471C2.44031 5.49128 2.30316 5.72612 2.30316 6.03925C2.30316 6.18016 2.33447 6.30948 2.3971 6.42722C2.45972 6.54433 2.55366 6.64203 2.67891 6.72031L9.3251 10.8771C9.48167 10.9711 9.64606 11.018 9.81828 11.018C9.9905 11.018 10.1549 10.9711 10.3115 10.8771L14.7736 8.08243C15.0397 8.17637 15.3059 8.24682 15.572 8.29379C15.8382 8.34076 16.1122 8.36424 16.394 8.36424C16.895 8.36424 17.3882 8.28596 17.8736 8.1294C18.3589 7.97283 18.8051 7.73798 19.2122 7.42485V15.8794C19.2122 16.396 19.0284 16.8385 18.6608 17.2067C18.2925 17.5743 17.8501 17.7581 17.3334 17.7581H2.30316Z" fill="white"/>
</svg>
