<svg width="19" height="18" viewBox="0 0 19 18" fill="none" xmlns="http://www.w3.org/2000/svg">
<path d="M15.9696 6.21398C15.1868 6.21398 14.5214 5.93999 13.9734 5.39201C13.4255 4.84403 13.1515 4.17863 13.1515 3.39581C13.1515 2.61298 13.4255 1.94758 13.9734 1.3996C14.5214 0.851626 15.1868 0.577637 15.9696 0.577637C16.7525 0.577637 17.4179 0.851626 17.9658 1.3996C18.5138 1.94758 18.7878 2.61298 18.7878 3.39581C18.7878 4.17863 18.5138 4.84403 17.9658 5.39201C17.4179 5.93999 16.7525 6.21398 15.9696 6.21398ZM1.87878 17.4867C1.36212 17.4867 0.919976 17.3029 0.552362 16.9352C0.184121 16.567 0 16.1245 0 15.6079V4.3352C0 3.81853 0.184121 3.37639 0.552362 3.00878C0.919976 2.64054 1.36212 2.45642 1.87878 2.45642H11.3666C11.304 2.76955 11.2727 3.08268 11.2727 3.39581C11.2727 3.70894 11.304 4.02207 11.3666 4.3352C11.4762 4.83621 11.6563 5.30183 11.9068 5.73207C12.1573 6.16294 12.4626 6.54277 12.8227 6.87155L9.3939 9.03215L3.09999 5.08671C2.83383 4.91449 2.56391 4.90666 2.29023 5.06323C2.01593 5.21979 1.87878 5.45464 1.87878 5.76777C1.87878 5.90868 1.91009 6.038 1.97272 6.15574C2.03535 6.27285 2.12928 6.37054 2.25454 6.44883L8.90072 10.6056C9.05729 10.6996 9.22168 10.7465 9.3939 10.7465C9.56612 10.7465 9.73052 10.6996 9.88708 10.6056L14.3492 7.81094C14.6153 7.90488 14.8815 7.97534 15.1477 8.02231C15.4138 8.06928 15.6878 8.09276 15.9696 8.09276C16.4706 8.09276 16.9638 8.01448 17.4492 7.85791C17.9345 7.70135 18.3807 7.4665 18.7878 7.15337V15.6079C18.7878 16.1245 18.604 16.567 18.2364 16.9352C17.8681 17.3029 17.4257 17.4867 16.909 17.4867H1.87878Z" fill="#24242E"/>
</svg>
