<svg width="19" height="20" viewBox="0 0 19 20" fill="none" xmlns="http://www.w3.org/2000/svg">
<path d="M3.99066 9.04061C5.49368 11.9945 7.91522 14.4056 10.8691 15.919L13.1654 13.6228C13.4472 13.3409 13.8647 13.247 14.23 13.3722C15.399 13.7584 16.662 13.9672 17.9563 13.9672C18.5303 13.9672 19 14.4369 19 15.011V18.6537C19 19.2278 18.5303 19.6975 17.9563 19.6975C8.15529 19.6975 0.212219 11.7544 0.212219 1.95344C0.212219 1.37936 0.681914 0.909668 1.25599 0.909668H4.90917C5.48324 0.909668 5.95294 1.37936 5.95294 1.95344C5.95294 3.25814 6.16169 4.51066 6.54789 5.67968C6.6627 6.045 6.5792 6.45207 6.28694 6.74433L3.99066 9.04061Z" fill="white"/>
</svg>
