<svg width="20" height="19" viewBox="0 0 20 19" fill="none" xmlns="http://www.w3.org/2000/svg">
<path d="M4.56625 8.16317C6.06927 11.117 8.49081 13.5281 11.4447 15.0416L13.741 12.7453C14.0228 12.4635 14.4403 12.3696 14.8056 12.4948C15.9746 12.881 17.2376 13.0898 18.5319 13.0898C19.1059 13.0898 19.5756 13.5594 19.5756 14.1335V17.7763C19.5756 18.3503 19.1059 18.82 18.5319 18.82C8.73088 18.82 0.787811 10.877 0.787811 1.07599C0.787811 0.501922 1.25751 0.0322266 1.83158 0.0322266H5.48476C6.05884 0.0322266 6.52853 0.501922 6.52853 1.07599C6.52853 2.3807 6.73728 3.63322 7.12348 4.80224C7.23829 5.16756 7.15479 5.57463 6.86254 5.86688L4.56625 8.16317Z" fill="#24242E"/>
</svg>
