<svg width="670" height="152" viewBox="0 0 670 152" fill="none" xmlns="http://www.w3.org/2000/svg">
<mask id="mask0_189_2" style="mask-type:luminance" maskUnits="userSpaceOnUse" x="0" y="0" width="666" height="152">
<path d="M665.761 0H0V152H665.761V0Z" fill="white"/>
</mask>
<g mask="url(#mask0_189_2)">
<path d="M174.791 27.2151V81.9665L199.327 54.9585H216.114V55.6933L187.565 85.9517L220.125 119.963V120.969H203.105L174.83 90.479V120.969H160.809V27.2151H174.83H174.791Z" fill="#FFCB77"/>
<path d="M236.135 92.9888C237.381 102.972 245.638 109.472 257.672 109.472C264.449 109.472 272.94 106.957 276.951 102.469L285.948 111.214C279.171 118.72 267.682 122.473 257.4 122.473C235.628 122.473 221.607 108.737 221.607 87.4555C221.607 67.4514 235.628 52.9411 256.426 52.9411C277.224 52.9411 292.218 65.9423 289.726 92.9504H236.135V92.9888ZM276.445 81.4967C275.705 71.011 267.915 65.4778 256.932 65.4778C246.923 65.4778 238.666 70.9721 236.407 81.4967H276.484H276.445Z" fill="#FFCB77"/>
<path d="M365.087 54.996L323.258 151.768H307.991L321.778 120.272L295.255 55.2667H311.262L322.791 86.5312L329.295 105.298L336.305 86.802L349.587 55.3057H365.126V55.0734L365.087 54.996Z" fill="#FFCB77"/>
<path d="M440.686 27.2151V120.969H427.678L426.938 110.483C421.68 118.996 412.917 122.246 403.92 122.246C384.641 122.246 370.114 109.748 370.114 87.7316C370.114 65.7148 384.369 53.2171 403.647 53.2171C411.671 53.2171 422.693 57.2024 426.938 64.98V27.2151H440.725H440.686ZM383.863 87.9638C383.863 101.197 393.132 109.478 404.894 109.478C416.656 109.478 425.925 100.965 425.925 87.9638C425.925 74.9626 416.422 66.4501 404.894 66.4501C393.366 66.4501 383.863 74.1888 383.863 87.9638Z" fill="black"/>
<path d="M472.23 54.9931L473.243 63.7379C477.995 55.2249 485.512 53.4841 492.754 53.4841C499.259 53.4841 505.256 55.728 509.034 59.2491L502.766 71.2443C499.492 68.4969 496.261 67.2586 491.001 67.2586C481.502 67.2586 473.243 73.2564 473.243 85.2511V121.004H459.456V54.9931H472.23Z" fill="black"/>
<path d="M580.899 87.9985C580.899 107.5 567.385 122.242 546.587 122.242C525.788 122.242 512.545 107.5 512.545 87.9985C512.545 68.4969 526.059 53.4841 546.587 53.4841C567.11 53.4841 580.899 68.4969 580.899 87.9985ZM526.335 87.9985C526.335 99.7614 534.085 109.512 546.625 109.512C559.165 109.512 566.915 99.7614 566.915 87.9985C566.915 76.2356 558.661 66.2525 546.625 66.2525C533.852 66.2525 526.335 76.2356 526.335 87.9985Z" fill="black"/>
<path d="M595.421 151.729V54.996H608.431L609.168 65.7523C614.195 57.7429 623.699 53.7576 632.461 53.7576C652.247 53.9899 665.761 68.2674 665.761 88.2721C665.761 108.277 652.984 122.787 632.461 122.787C624.435 122.787 614.195 119.768 609.168 111.798V152.039H595.383V151.807L595.421 151.729ZM652.247 87.9624C652.247 75.4647 643.989 66.9522 631.216 66.9522C618.438 66.9522 610.417 76.2 610.417 87.9624C610.417 99.7253 619.18 108.973 631.216 108.973C643.247 108.973 652.247 100.228 652.247 87.9624Z" fill="black"/>
<path d="M69.8635 53.4052H53.4252V73.9456H69.8635V53.4052Z" fill="#FFCB77"/>
<path d="M69.8635 82.1603H53.4252V135.565H69.8635V82.1603Z" fill="#FFCB77"/>
<path d="M45.2061 73.9456H10.301C4.69809 73.9456 0 69.4849 0 63.6752C0 57.8659 4.48928 53.4052 10.301 53.4052H45.2061V73.9456Z" fill="#FFCB77"/>
<path d="M45.2067 135.565C27.0351 135.565 12.3296 120.755 12.3296 102.436V82.1603H45.2067V135.565Z" fill="#FFCB77"/>
<path d="M78.084 73.9456H112.989C118.592 73.9456 123.29 69.4849 123.29 63.6752C123.29 57.8659 118.801 53.4052 112.989 53.4052H78.084V73.9456Z" fill="#FFCB77"/>
<path d="M78.084 135.565C96.2557 135.565 110.961 120.755 110.961 102.436V82.1603H78.084V135.565Z" fill="#FFCB77"/>
<path d="M53.6541 45.0773L18.6732 35.2516C16.1311 34.5801 15.6656 30.9043 17.7422 29.5259L41.6596 12.8787C43.2708 11.7477 45.3474 12.4192 46.0277 14.2571L57.3059 40.5179C58.2372 43.0274 56.1602 45.7842 53.618 45.0773H53.6541Z" fill="#FFCB77"/>
<path d="M66.0559 40.5356L85.7624 1.69059C86.863 -0.528156 89.752 -0.528156 90.8525 1.48578L110.525 34.3573C111.625 36.3371 110.525 38.7606 108.53 38.9996L69.1854 45.1779C66.7439 45.3827 64.9896 42.7544 66.0901 40.5356H66.0559Z" fill="#FFCB77"/>
<path d="M405.516 137.797H370.23V151.726H405.516V137.797Z" fill="black"/>
</g>
</svg>
