<svg width="41" height="39" viewBox="0 0 41 39" fill="none" xmlns="http://www.w3.org/2000/svg">
<path d="M26.3522 18.0187L22.5491 27.451C22.0214 28.76 21.2314 29.6276 20.1794 30.0538C19.1325 30.4672 17.9738 30.4177 16.7033 29.9055C15.42 29.3881 14.5306 28.5968 14.035 27.5317C13.5523 26.4718 13.58 25.2745 14.1181 23.9398L16.8131 25.0264C16.5931 25.6091 16.5467 26.1126 16.674 26.5369C16.8142 26.9663 17.1345 27.282 17.635 27.4838C18.1226 27.6804 18.5569 27.6765 18.9377 27.4719C19.3185 27.2674 19.6176 26.8957 19.8349 26.3567L23.638 16.9244L26.3522 18.0187Z" fill="#24242E"/>
<path d="M15.6019 20.9813L19.4049 11.549C19.9327 10.24 20.7226 9.3724 21.7747 8.94619C22.8216 8.53282 23.9803 8.58225 25.2508 9.0945C26.5341 9.61192 27.4235 10.4032 27.919 11.4683C28.4018 12.5282 28.3741 13.7255 27.8359 15.0602L25.141 13.9736C25.361 13.3909 25.4074 12.8874 25.28 12.4631C25.1399 12.0337 24.8196 11.718 24.3191 11.5162C23.8314 11.3196 23.3972 11.3235 23.0164 11.5281C22.6355 11.7326 22.3364 12.1043 22.1191 12.6433L18.3161 22.0756L15.6019 20.9813Z" fill="#24242E"/>
<path d="M30.3481 15.452H34.0218L38.5464 20.1012L34.0218 24.7504H30.3481L34.8935 20.1012L30.3481 15.452Z" fill="#2D95F5"/>
<path d="M11.0871 15.452H7.4134L2.88874 20.1012L7.4134 24.7504H11.0871L6.54168 20.1012L11.0871 15.452Z" fill="#2D95F5"/>
</svg>
