<svg width="41" height="39" viewBox="0 0 41 39" fill="none" xmlns="http://www.w3.org/2000/svg">
<path d="M26.3522 17.8223L22.5492 27.2546C22.0214 28.5635 21.2315 29.4311 20.1794 29.8573C19.1325 30.2707 17.9738 30.2213 16.7033 29.709C15.42 29.1916 14.5306 28.4003 14.0351 27.3352C13.5523 26.2753 13.58 25.078 14.1182 23.7434L16.8131 24.8299C16.5931 25.4126 16.5468 25.9161 16.6741 26.3404C16.8142 26.7699 17.1345 27.0855 17.635 27.2873C18.1227 27.4839 18.5569 27.48 18.9378 27.2755C19.3186 27.071 19.6177 26.6992 19.835 26.1602L23.638 16.7279L26.3522 17.8223Z" fill="white"/>
<path d="M15.602 20.7847L19.405 11.3524C19.9327 10.0434 20.7227 9.17581 21.7748 8.7496C22.8217 8.33623 23.9803 8.38566 25.2508 8.8979C26.5341 9.41532 27.4236 10.2066 27.9191 11.2717C28.4018 12.3316 28.3741 13.5289 27.836 14.8636L25.1411 13.777C25.3611 13.1943 25.4074 12.6909 25.2801 12.2665C25.14 11.8371 24.8196 11.5214 24.3192 11.3196C23.8315 11.123 23.3973 11.127 23.0164 11.3315C22.6356 11.536 22.3365 11.9077 22.1192 12.4467L18.3162 21.879L15.602 20.7847Z" fill="white"/>
<path d="M30.3481 15.2554H34.0218L38.5464 19.9046L34.0218 24.5538H30.3481L34.8935 19.9046L30.3481 15.2554Z" fill="#2D95F5"/>
<path d="M11.0871 15.2554H7.4134L2.88874 19.9046L7.4134 24.5538H11.0871L6.54168 19.9046L11.0871 15.2554Z" fill="#2D95F5"/>
</svg>
